<svg xmlns="http://www.w3.org/2000/svg" class="svg-icon" style="width: 1em; height: 1em;vertical-align: middle;fill: currentColor;overflow: hidden;" viewBox="0 0 1024 1024" version="1.1"><path d="M70.6 267.1c11.3-19.6 36.4-26.3 55.9-15l372.8 215.3 369.1-213.1c19.6-11.3 44.6-4.6 55.9 15 0.2 0.3 0.3 0.5 0.4 0.8-3.5-7-8.9-13-16.2-17.2L521.7 29.5c-7.5-6.1-16.9-9.3-26.4-9.2-9.5-0.1-18.9 3.1-26.4 9.2l-383 221.1c-10.1 5.8-16.8 15.4-19.3 25.9 0.9-3.1 2.2-6.3 4-9.4z" fill="#ffffff"/><path d="M925.5 271.5c9.6 19.2 2.7 42.9-16.2 53.8L543.4 536.5v429c0 22.6-18.3 41-41 41-22.6 0-41-18.3-41-41V540.1l-375.9-217c-11.9-6.9-19.1-18.8-20.3-31.6v446.1c-1.5 15.5 5.9 31.1 20.3 39.4l387.4 223.7c7.5 6.1 16.9 9.3 26.4 9.2 9.5 0.1 18.9-3.1 26.4-9.2l376-217.1c16.6-5.2 28.7-20.7 28.7-39.1V290.9c0-7.1-1.8-13.7-4.9-19.4z" fill="#ffffff"/></svg>